<svg width="259" height="60" viewBox="0 0 259 60" fill="none" xmlns="http://www.w3.org/2000/svg">
<g clip-path="url(#clip0_3023_1130)">
<path d="M213.689 6.46112C213.689 9.37215 215.652 11.6094 219.052 11.6094C220.174 11.6094 221.164 11.3762 221.952 10.9875C222.022 10.9443 222.119 10.9184 222.206 10.9184C222.531 10.9184 222.793 11.1516 222.793 11.4971C222.793 11.7044 222.68 11.9117 222.469 12.0068C221.532 12.4905 220.358 12.7669 219.052 12.7669C214.907 12.7669 212.524 10.02 212.524 6.46976C212.524 2.59127 215.494 0.00848389 218.912 0.00848389C220.27 0.00848389 221.532 0.284902 222.373 0.742719C222.557 0.855014 222.68 1.04505 222.68 1.25237C222.68 1.52878 222.443 1.83112 222.093 1.83112C221.996 1.83112 221.908 1.8052 221.812 1.76201C221.111 1.39057 220.033 1.16598 218.912 1.16598C216.099 1.16598 213.689 3.29095 213.689 6.47839V6.46112Z" fill="#351021"/>
<path d="M233.431 9.20818H226.825C226.378 10.3138 225.983 11.3331 225.677 12.1624C225.58 12.4129 225.326 12.5511 225.09 12.5511C224.809 12.5511 224.529 12.3006 224.529 11.9551C224.529 11.8601 224.555 11.7737 224.765 11.2381C225.817 8.44803 227.832 3.87849 229.445 0.345523C229.541 0.138209 229.769 0 230.005 0H230.102C230.338 0 230.566 0.112295 230.663 0.319608C232.345 3.89577 234.641 8.94904 235.552 11.2381C235.789 11.791 235.806 11.9033 235.806 11.9724C235.806 12.2747 235.526 12.5511 235.219 12.5511C234.982 12.5511 234.772 12.4129 234.684 12.1797C234.36 11.3504 233.913 10.3138 233.423 9.19954L233.431 9.20818ZM227.315 8.05068H232.932C232.021 5.99482 230.987 3.75756 230.049 1.82263C229.182 3.78347 228.174 6.00345 227.307 8.05068H227.315Z" fill="#351021"/>
<path d="M236.515 1.57212C236.401 1.25252 236.279 0.906994 236.279 0.760147C236.279 0.483729 236.463 0.181396 236.866 0.181396C237.102 0.181396 237.357 0.319606 237.427 0.570109C238.224 3.06651 240.73 8.48258 241.966 10.9358C243.227 8.3962 245.523 3.43795 246.487 0.596024C246.583 0.34552 246.811 0.207311 247.074 0.207311C247.381 0.207311 247.635 0.483729 247.635 0.803337C247.635 0.898356 247.565 1.14886 247.355 1.72761C246.373 4.33631 243.517 10.5212 242.483 12.482C242.386 12.6634 242.176 12.7843 241.966 12.7843C241.729 12.7843 241.519 12.6202 241.379 12.3438C240.441 10.5903 237.374 3.96487 236.507 1.56349L236.515 1.57212Z" fill="#351021"/>
<path d="M250.167 0.786087C250.167 0.483755 250.404 0.207336 250.684 0.207336H257.239C257.563 0.207336 257.826 0.45784 257.826 0.786087C257.826 1.08842 257.572 1.36484 257.239 1.36484H251.342V5.38154H256.231C256.555 5.38154 256.818 5.63204 256.818 5.96029C256.818 6.26262 256.564 6.53904 256.231 6.53904H251.342V11.4109H257.291C257.624 11.4109 257.878 11.6614 257.878 11.9897C257.878 12.292 257.624 12.5684 257.291 12.5684H250.763C250.457 12.5684 250.176 12.292 250.176 11.9897V0.786087H250.167Z" fill="#351021"/>
<path d="M32.3158 50.8523C32.3158 48.9087 31.6236 47.9067 29.3278 47.9067H3.73277C1.65607 47.9067 0.74478 48.6928 0.74478 50.8523V59.1017C0.74478 59.309 0.587056 59.4731 0.367996 59.4731C0.148935 59.4731 -0.00878906 59.3176 -0.00878906 59.1017V25.6723C-0.00878906 25.465 0.148935 25.3009 0.367996 25.3009C0.587056 25.3009 0.74478 25.4564 0.74478 25.6723V33.9217C0.74478 35.7616 1.43701 36.8673 3.73277 36.8673H29.3278C31.4571 36.8673 32.3158 36.0294 32.3158 33.9217V25.6723C32.3158 25.465 32.4736 25.3009 32.6926 25.3009C32.9117 25.3009 33.0694 25.4564 33.0694 25.6723V59.1017C33.0694 59.309 32.9117 59.4731 32.6926 59.4731C32.4736 59.4731 32.3158 59.3176 32.3158 59.1017V50.8523Z" fill="#351021"/>
<path d="M39.8338 35.8134C37.6432 35.8134 36.8459 36.7031 36.8459 38.759V41.074C36.8459 41.6527 37.1087 42.0242 37.8097 42.0242H62.5548C62.7651 42.0242 62.9316 42.1796 62.9316 42.3956C62.9316 42.6116 62.7739 42.767 62.5548 42.767H37.8097C37.1701 42.767 36.8459 43.0866 36.8459 43.7172V46.0322C36.8459 47.9758 37.5381 48.9778 39.8338 48.9778H63.1332C66.866 48.9778 69.1617 51.4483 69.1617 54.4975C69.1617 57.5468 66.866 60.0173 63.1332 60.0173H42.1208C38.388 60.0173 36.0923 57.5468 36.0923 54.4975V30.3196C36.0923 27.2703 38.388 24.7999 42.1208 24.7999H63.1332C66.866 24.7999 69.1617 27.2703 69.1617 30.3196C69.1617 33.3688 66.866 35.8393 63.1332 35.8393H39.8338V35.8134ZM46.8964 23.936C46.5809 24.1434 46.3619 24.2557 46.1516 24.2557C45.9413 24.2557 45.8273 24.1002 45.8273 23.9965C45.8273 23.7892 45.9325 23.6251 46.2041 23.4696L58.0948 16.2136C58.419 16.0063 58.6293 15.9026 58.8396 15.9026C59.0499 15.9026 59.1638 16.0581 59.1638 16.1618C59.1638 16.3691 59.0586 16.5332 58.787 16.6887L46.8964 23.9447V23.936Z" fill="#351021"/>
<path d="M105 53.9015C103.239 57.4777 102.065 60 98.3319 60C96.1413 60 93.9858 58.7906 92.6802 55.4304L86.1784 38.7417C85.8017 37.7915 85.2671 37.1955 84.7151 37.1955C84.0755 37.1955 83.6724 37.8002 83.6724 39.6919V54.0656C83.6724 57.7454 81.0612 60.0086 77.8103 60.0086C74.5594 60.0086 71.9482 57.7454 71.9482 54.0656V30.8811C71.9482 27.2013 74.0249 24.7826 77.2758 24.7826C80.5267 24.7826 82.4456 27.1494 83.8914 30.8292L91.3307 50.0403C91.6812 50.9041 92.1544 51.932 92.8729 51.932C93.7492 51.932 94.2311 50.8782 94.5816 49.9885L102.503 30.8811C104.212 27.3049 105.754 24.7826 109.487 24.7826C112.737 24.7826 114.814 27.2013 114.814 30.8811V59.1103C114.814 59.3176 114.656 59.4817 114.437 59.4817C114.218 59.4817 114.061 59.3262 114.061 59.1103V39.8733C114.061 37.7483 113.579 37.1955 113.018 37.1955C112.457 37.1955 111.896 37.8002 111.528 38.7417L105 53.9101V53.9015Z" fill="#351021"/>
<path d="M152.992 49.2197C152.458 48.1658 151.818 47.9067 150.863 47.9067H134.976C134.021 47.9067 133.32 48.0103 132.628 49.2197L128.151 56.8385C126.924 58.9375 125.057 59.9913 122.981 59.9913C119.677 59.9913 117.592 57.4172 117.592 54.5753C117.592 53.5214 117.855 52.4158 118.494 51.3187L132.041 28.2983C133.478 25.8796 135.082 24.6185 137.693 24.6185C141.215 24.6185 142.705 27.6159 145.369 32.816L158.696 58.5229C158.959 58.998 158.959 59.0498 158.959 59.1535C158.959 59.3089 158.854 59.4731 158.635 59.4731C158.477 59.4731 158.311 59.4212 158.153 59.1016L152.983 49.2197H152.992ZM145.842 35.5024C145.15 34.1376 144.457 32.7728 143.283 32.7728C142.109 32.7728 141.154 34.7164 140.619 35.5629L134.591 45.8681C134.267 46.4469 134.267 46.6023 134.267 46.6542C134.267 46.9738 134.477 47.1811 134.959 47.1811H150.845C151.327 47.1811 151.537 46.9738 151.537 46.6542C151.537 46.6023 151.537 46.4469 151.213 45.8681L145.824 35.5111L145.842 35.5024Z" fill="#351021"/>
<path d="M166.697 59.1017V38.759C166.697 36.7118 165.899 35.8134 163.709 35.8134H154.166C150.433 35.8134 148.138 33.3429 148.138 30.2937C148.138 27.2445 150.433 24.774 154.166 24.774H179.972C183.704 24.774 186 27.2445 186 30.2937C186 33.3429 183.704 35.8134 179.972 35.8134H170.429C168.239 35.8134 167.441 36.7032 167.441 38.759V59.1017C167.441 59.309 167.284 59.4731 167.065 59.4731C166.845 59.4731 166.688 59.3176 166.688 59.1017H166.697Z" fill="#351021"/>
<path d="M206.215 46.015C206.215 48.0622 207.013 48.9606 209.203 48.9606H217.151C220.884 48.9606 223.179 51.4311 223.179 54.4803C223.179 57.5295 220.884 60 217.151 60H194.544C190.811 60 188.515 57.5295 188.515 54.4803C188.515 51.4311 190.811 48.9606 194.544 48.9606H202.491C204.682 48.9606 205.479 48.0708 205.479 46.015V38.759C205.479 36.7118 204.682 35.8134 202.491 35.8134H194.544C190.811 35.8134 188.515 33.3429 188.515 30.2937C188.515 27.2445 190.811 24.774 194.544 24.774H217.151C220.884 24.774 223.179 27.2445 223.179 30.2937C223.179 33.3429 220.884 35.8134 217.151 35.8134H209.203C207.013 35.8134 206.215 36.7032 206.215 38.759V46.015Z" fill="#351021"/>
<path d="M229.681 35.8134C227.49 35.8134 226.693 36.7031 226.693 38.759V41.074C226.693 41.6527 226.956 42.0242 227.657 42.0242H252.402C252.612 42.0242 252.779 42.1797 252.779 42.3956C252.779 42.6116 252.621 42.767 252.402 42.767H227.657C227.017 42.767 226.693 43.0867 226.693 43.7172V46.0322C226.693 47.9758 227.385 48.9778 229.681 48.9778H252.98C256.713 48.9778 259.009 51.4483 259.009 54.4975C259.009 57.5468 256.713 60.0173 252.98 60.0173H231.968C228.235 60.0173 225.939 57.5468 225.939 54.4975V30.3196C225.939 27.2704 228.235 24.7999 231.968 24.7999H252.98C256.713 24.7999 259.009 27.2704 259.009 30.3196C259.009 33.3688 256.713 35.8393 252.98 35.8393H229.681V35.8134Z" fill="#351021"/>
</g>
<defs>
<clipPath id="clip0_3023_1130">
<rect width="259" height="60" fill="white"/>
</clipPath>
</defs>
</svg>
