<svg width="164" height="39" viewBox="0 0 164 39" fill="none" xmlns="http://www.w3.org/2000/svg">
<g clip-path="url(#clip0_3020_894)">
<path d="M135.309 4.19974C135.309 6.0919 136.552 7.54612 138.705 7.54612C139.415 7.54612 140.042 7.39453 140.541 7.14186C140.586 7.11379 140.647 7.09694 140.702 7.09694C140.908 7.09694 141.074 7.24854 141.074 7.47313C141.074 7.60789 141.002 7.74264 140.869 7.8044C140.275 8.11883 139.532 8.2985 138.705 8.2985C136.08 8.2985 134.571 6.51301 134.571 4.20535C134.571 1.68433 136.452 0.00552368 138.616 0.00552368C139.476 0.00552368 140.275 0.185195 140.808 0.482777C140.924 0.555768 141.002 0.679293 141.002 0.814047C141.002 0.993718 140.852 1.19023 140.63 1.19023C140.569 1.19023 140.514 1.17339 140.453 1.14532C140.009 0.903882 139.326 0.757899 138.616 0.757899C136.835 0.757899 135.309 2.13913 135.309 4.21097V4.19974Z" fill="#F4F4E4"/>
<path d="M147.81 5.98531H143.626C143.343 6.704 143.094 7.36654 142.899 7.90556C142.838 8.06838 142.678 8.15822 142.528 8.15822C142.35 8.15822 142.173 7.99539 142.173 7.7708C142.173 7.70904 142.189 7.65289 142.322 7.30478C142.988 5.49122 144.264 2.52102 145.285 0.22459C145.346 0.0898359 145.491 0 145.64 0H145.701C145.851 0 145.995 0.0729917 146.056 0.207745C147.122 2.53225 148.575 5.81687 149.153 7.30478C149.302 7.66412 149.313 7.73711 149.313 7.78203C149.313 7.97855 149.136 8.15822 148.942 8.15822C148.792 8.15822 148.659 8.06838 148.603 7.91679C148.398 7.37777 148.115 6.704 147.804 5.9797L147.81 5.98531ZM143.937 5.23294H147.494C146.916 3.89663 146.262 2.44241 145.668 1.18471C145.119 2.45926 144.481 3.90225 143.931 5.23294H143.937Z" fill="#F4F4E4"/>
<path d="M149.763 1.02189C149.691 0.814148 149.613 0.589558 149.613 0.494108C149.613 0.314436 149.73 0.11792 149.985 0.11792C150.135 0.11792 150.295 0.207756 150.34 0.370583C150.845 1.99324 152.432 5.51369 153.214 7.10827C154.013 5.45754 155.467 2.23468 156.077 0.387428C156.138 0.2246 156.282 0.134764 156.449 0.134764C156.643 0.134764 156.804 0.314436 156.804 0.522181C156.804 0.583944 156.759 0.746771 156.626 1.12296C156.005 2.81861 154.196 6.83877 153.541 8.11331C153.48 8.23122 153.347 8.30983 153.214 8.30983C153.064 8.30983 152.931 8.20315 152.842 8.02348C152.249 6.88368 150.307 2.57718 149.757 1.01628L149.763 1.02189Z" fill="#F4F4E4"/>
<path d="M158.407 0.510953C158.407 0.314437 158.557 0.134766 158.735 0.134766H162.885C163.09 0.134766 163.257 0.297593 163.257 0.510953C163.257 0.707469 163.096 0.887141 162.885 0.887141H159.151V3.498H162.247C162.452 3.498 162.618 3.66082 162.618 3.87418C162.618 4.0707 162.458 4.25037 162.247 4.25037H159.151V7.41709H162.918C163.129 7.41709 163.29 7.57991 163.29 7.79327C163.29 7.98979 163.129 8.16946 162.918 8.16946H158.785C158.59 8.16946 158.413 7.98979 158.413 7.79327V0.510953H158.407Z" fill="#F4F4E4"/>
<path d="M20.4625 33.054C20.4625 31.7907 20.0242 31.1394 18.5705 31.1394H2.36356C1.04858 31.1394 0.471548 31.6503 0.471548 33.054V38.4161C0.471548 38.5508 0.371677 38.6575 0.232967 38.6575C0.0942562 38.6575 -0.00561523 38.5564 -0.00561523 38.4161V16.687C-0.00561523 16.5523 0.0942562 16.4456 0.232967 16.4456C0.371677 16.4456 0.471548 16.5467 0.471548 16.687V22.0491C0.471548 23.245 0.909873 23.9637 2.36356 23.9637H18.5705C19.9187 23.9637 20.4625 23.4191 20.4625 22.0491V16.687C20.4625 16.5523 20.5624 16.4456 20.7011 16.4456C20.8398 16.4456 20.9396 16.5467 20.9396 16.687V38.4161C20.9396 38.5508 20.8398 38.6575 20.7011 38.6575C20.5624 38.6575 20.4625 38.5564 20.4625 38.4161V33.054Z" fill="#F4F4E4"/>
<path d="M25.2232 23.2787C23.8361 23.2787 23.3312 23.857 23.3312 25.1933V26.6981C23.3312 27.0743 23.4976 27.3157 23.9415 27.3157H39.6102C39.7434 27.3157 39.8488 27.4168 39.8488 27.5571C39.8488 27.6975 39.7489 27.7986 39.6102 27.7986H23.9415C23.5365 27.7986 23.3312 28.0063 23.3312 28.4162V29.921C23.3312 31.1843 23.7695 31.8356 25.2232 31.8356H39.9764C42.34 31.8356 43.7937 33.4414 43.7937 35.4234C43.7937 37.4054 42.34 39.0112 39.9764 39.0112H26.6713C24.3077 39.0112 22.854 37.4054 22.854 35.4234V19.7077C22.854 17.7257 24.3077 16.1199 26.6713 16.1199H39.9764C42.34 16.1199 43.7937 17.7257 43.7937 19.7077C43.7937 21.6897 42.34 23.2956 39.9764 23.2956H25.2232V23.2787ZM29.6952 15.5584C29.4955 15.6932 29.3567 15.7662 29.2236 15.7662C29.0904 15.7662 29.0183 15.6651 29.0183 15.5977C29.0183 15.463 29.0849 15.3563 29.2569 15.2552L36.7861 10.5389C36.9914 10.4041 37.1245 10.3367 37.2577 10.3367C37.3909 10.3367 37.463 10.4378 37.463 10.5052C37.463 10.6399 37.3964 10.7466 37.2244 10.8477L29.6952 15.5641V15.5584Z" fill="#F4F4E4"/>
<path d="M66.4867 35.036C65.3715 37.3605 64.628 39 62.2644 39C60.8773 39 59.5124 38.2139 58.6857 36.0298L54.5687 25.1821C54.3301 24.5645 53.9917 24.1771 53.6421 24.1771C53.2371 24.1771 52.9819 24.5701 52.9819 25.7997V35.1427C52.9819 37.5346 51.3285 39.0056 49.27 39.0056C47.2115 39.0056 45.5581 37.5346 45.5581 35.1427V20.0727C45.5581 17.6808 46.8731 16.1087 48.9315 16.1087C50.99 16.1087 52.2051 17.6471 53.1206 20.039L57.8312 32.5262C58.0531 33.0877 58.3527 33.7558 58.8077 33.7558C59.3626 33.7558 59.6677 33.0708 59.8897 32.4925L64.9054 20.0727C65.9874 17.7482 66.9639 16.1087 69.3275 16.1087C71.386 16.1087 72.7009 17.6808 72.7009 20.0727V38.4217C72.7009 38.5564 72.6011 38.6631 72.4624 38.6631C72.3237 38.6631 72.2238 38.5621 72.2238 38.4217V25.9177C72.2238 24.5364 71.9186 24.1771 71.5635 24.1771C71.2084 24.1771 70.8533 24.5701 70.6203 25.1821L66.4867 35.0416V35.036Z" fill="#F4F4E4"/>
<path d="M96.8753 31.9928C96.5369 31.3078 96.1318 31.1394 95.527 31.1394H85.4678C84.863 31.1394 84.4191 31.2067 83.9808 31.9928L81.1456 36.945C80.3688 38.3094 79.187 38.9944 77.872 38.9944C75.7802 38.9944 74.4597 37.3212 74.4597 35.4739C74.4597 34.7889 74.6262 34.0703 75.0312 33.3572L83.6091 18.3939C84.519 16.8218 85.5344 16.002 87.1878 16.002C89.4182 16.002 90.3615 17.9503 92.0482 21.3304L100.487 38.0399C100.654 38.3487 100.654 38.3824 100.654 38.4498C100.654 38.5508 100.587 38.6575 100.448 38.6575C100.349 38.6575 100.243 38.6238 100.143 38.4161L96.8698 31.9928H96.8753ZM92.3478 23.0766C91.9095 22.1895 91.4712 21.3023 90.7277 21.3023C89.9842 21.3023 89.3794 22.5656 89.0409 23.1159L85.2236 29.8143C85.0184 30.1905 85.0183 30.2915 85.0183 30.3252C85.0183 30.533 85.1515 30.6677 85.4567 30.6677H95.5159C95.8211 30.6677 95.9543 30.533 95.9543 30.3252C95.9543 30.2915 95.9543 30.1905 95.749 29.8143L92.3367 23.0822L92.3478 23.0766Z" fill="#F4F4E4"/>
<path d="M105.553 38.4161V25.1934C105.553 23.8627 105.048 23.2787 103.661 23.2787H97.6188C95.2552 23.2787 93.8015 21.6729 93.8015 19.6909C93.8015 17.7089 95.2552 16.1031 97.6188 16.1031H113.959C116.323 16.1031 117.776 17.7089 117.776 19.6909C117.776 21.6729 116.323 23.2787 113.959 23.2787H107.917C106.53 23.2787 106.025 23.857 106.025 25.1934V38.4161C106.025 38.5508 105.925 38.6575 105.786 38.6575C105.647 38.6575 105.548 38.5564 105.548 38.4161H105.553Z" fill="#F4F4E4"/>
<path d="M130.576 29.9097C130.576 31.2404 131.081 31.8244 132.468 31.8244H137.501C139.864 31.8244 141.318 33.4302 141.318 35.4122C141.318 37.3942 139.864 39 137.501 39H123.186C120.822 39 119.369 37.3942 119.369 35.4122C119.369 33.4302 120.822 31.8244 123.186 31.8244H128.218C129.605 31.8244 130.11 31.246 130.11 29.9097V25.1934C130.11 23.8627 129.605 23.2787 128.218 23.2787H123.186C120.822 23.2787 119.369 21.6729 119.369 19.6909C119.369 17.7089 120.822 16.1031 123.186 16.1031H137.501C139.864 16.1031 141.318 17.7089 141.318 19.6909C141.318 21.6729 139.864 23.2787 137.501 23.2787H132.468C131.081 23.2787 130.576 23.857 130.576 25.1934V29.9097Z" fill="#F4F4E4"/>
<path d="M145.435 23.2787C144.048 23.2787 143.543 23.8571 143.543 25.1934V26.6981C143.543 27.0743 143.71 27.3157 144.153 27.3157H159.822C159.955 27.3157 160.061 27.4168 160.061 27.5572C160.061 27.6975 159.961 27.7986 159.822 27.7986H144.153C143.748 27.7986 143.543 28.0063 143.543 28.4162V29.921C143.543 31.1843 143.981 31.8356 145.435 31.8356H160.188C162.552 31.8356 164.006 33.4414 164.006 35.4234C164.006 37.4054 162.552 39.0112 160.188 39.0112H146.883C144.52 39.0112 143.066 37.4054 143.066 35.4234V19.7078C143.066 17.7258 144.52 16.1199 146.883 16.1199H160.188C162.552 16.1199 164.006 17.7258 164.006 19.7078C164.006 21.6898 162.552 23.2956 160.188 23.2956H145.435V23.2787Z" fill="#F4F4E4"/>
</g>
<defs>
<clipPath id="clip0_3020_894">
<rect width="164" height="39" fill="white"/>
</clipPath>
</defs>
</svg>
