<svg width="356" height="83" viewBox="0 0 356 83" fill="none" xmlns="http://www.w3.org/2000/svg">
<g clip-path="url(#clip0_3020_1354)">
<path d="M293.72 8.93786C293.72 12.9648 296.418 16.0597 301.091 16.0597C302.632 16.0597 303.993 15.737 305.077 15.1993C305.174 15.1396 305.306 15.1037 305.427 15.1037C305.872 15.1037 306.234 15.4263 306.234 15.9043C306.234 16.1911 306.077 16.4779 305.788 16.6093C304.499 17.2785 302.885 17.6609 301.091 17.6609C295.394 17.6609 292.118 13.861 292.118 8.94981C292.118 3.58457 296.201 0.0117188 300.898 0.0117188C302.765 0.0117188 304.499 0.394097 305.656 1.02741C305.908 1.18275 306.077 1.44564 306.077 1.73242C306.077 2.1148 305.752 2.53303 305.27 2.53303C305.138 2.53303 305.017 2.49718 304.885 2.43743C303.921 1.92361 302.44 1.61293 300.898 1.61293C297.032 1.61293 293.72 4.55246 293.72 8.96176V8.93786Z" fill="#351021"/>
<path d="M320.855 12.738H311.774C311.16 14.2675 310.618 15.6775 310.196 16.8246C310.064 17.1712 309.714 17.3624 309.389 17.3624C309.004 17.3624 308.618 17.0158 308.618 16.5379C308.618 16.4064 308.655 16.2869 308.944 15.5461C310.389 11.6864 313.159 5.36525 315.375 0.477973C315.508 0.191189 315.821 0 316.146 0H316.278C316.604 0 316.917 0.155341 317.049 0.442125C319.362 5.38914 322.517 12.3795 323.77 15.5461C324.095 16.3108 324.119 16.4662 324.119 16.5618C324.119 16.98 323.734 17.3624 323.312 17.3624C322.987 17.3624 322.698 17.1712 322.578 16.8485C322.132 15.7014 321.518 14.2675 320.843 12.726L320.855 12.738ZM312.448 11.1368H320.169C318.916 8.29283 317.495 5.19796 316.206 2.52131C315.014 5.2338 313.629 8.30478 312.436 11.1368H312.448Z" fill="#351021"/>
<path d="M325.095 2.17482C324.938 1.73269 324.77 1.25472 324.77 1.05158C324.77 0.669203 325.022 0.250977 325.577 0.250977C325.902 0.250977 326.251 0.442166 326.347 0.788696C327.443 4.24205 330.888 11.7343 332.586 15.1279C334.321 11.6148 337.476 4.75587 338.801 0.824544C338.933 0.478014 339.247 0.286825 339.608 0.286825C340.029 0.286825 340.379 0.669203 340.379 1.11133C340.379 1.24277 340.282 1.5893 339.993 2.38991C338.644 5.9986 334.718 14.5543 333.297 17.2668C333.164 17.5177 332.875 17.685 332.586 17.685C332.261 17.685 331.972 17.458 331.779 17.0756C330.49 14.6499 326.275 5.48478 325.083 2.16287L325.095 2.17482Z" fill="#351021"/>
<path d="M343.86 1.08747C343.86 0.669244 344.185 0.286865 344.57 0.286865H353.579C354.025 0.286865 354.386 0.633396 354.386 1.08747C354.386 1.5057 354.037 1.88807 353.579 1.88807H345.474V7.44451H352.194C352.64 7.44451 353.001 7.79104 353.001 8.24512C353.001 8.66334 352.652 9.04572 352.194 9.04572H345.474V15.7851H353.651C354.109 15.7851 354.458 16.1317 354.458 16.5857C354.458 17.004 354.109 17.3863 353.651 17.3863H344.679C344.257 17.3863 343.872 17.004 343.872 16.5857V1.08747H343.86Z" fill="#351021"/>
<path d="M44.4185 70.3456C44.4185 67.657 43.4671 66.2709 40.3115 66.2709H5.13063C2.27618 66.2709 1.02359 67.3583 1.02359 70.3456V81.7572C1.02359 82.044 0.806793 82.271 0.50569 82.271C0.204587 82.271 -0.012207 82.0559 -0.012207 81.7572V35.5133C-0.012207 35.2265 0.204587 34.9995 0.50569 34.9995C0.806793 34.9995 1.02359 35.2146 1.02359 35.5133V46.9249C1.02359 49.4701 1.97507 50.9997 5.13063 50.9997H40.3115C43.2382 50.9997 44.4185 49.8406 44.4185 46.9249V35.5133C44.4185 35.2265 44.6353 34.9995 44.9364 34.9995C45.2375 34.9995 45.4543 35.2146 45.4543 35.5133V81.7572C45.4543 82.044 45.2375 82.271 44.9364 82.271C44.6353 82.271 44.4185 82.0559 44.4185 81.7572V70.3456Z" fill="#351021"/>
<path d="M54.7525 49.542C51.7414 49.542 50.6454 50.7728 50.6454 53.6167V56.8191C50.6454 57.6197 51.0067 58.1335 51.9703 58.1335H85.9829C86.2719 58.1335 86.5008 58.3486 86.5008 58.6474C86.5008 58.9461 86.284 59.1612 85.9829 59.1612H51.9703C51.091 59.1612 50.6454 59.6033 50.6454 60.4756V63.678C50.6454 66.3666 51.5969 67.7527 54.7525 67.7527H86.7778C91.9086 67.7527 95.0641 71.1702 95.0641 75.3884C95.0641 79.6065 91.9086 83.024 86.7778 83.024H57.896C52.7652 83.024 49.6096 79.6065 49.6096 75.3884V41.9422C49.6096 37.7241 52.7652 34.3066 57.896 34.3066H86.7778C91.9086 34.3066 95.0641 37.7241 95.0641 41.9422C95.0641 46.1603 91.9086 49.5778 86.7778 49.5778H54.7525V49.542ZM64.46 33.1117C64.0264 33.3984 63.7253 33.5538 63.4363 33.5538C63.1472 33.5538 62.9906 33.3387 62.9906 33.1953C62.9906 32.9085 63.1352 32.6815 63.5085 32.4664L79.8524 22.429C80.298 22.1422 80.5871 21.9988 80.8762 21.9988C81.1652 21.9988 81.3218 22.2139 81.3218 22.3573C81.3218 22.644 81.1773 22.8711 80.8039 23.0862L64.46 33.1236V33.1117Z" fill="#351021"/>
<path d="M144.325 74.5639C141.904 79.5109 140.29 83.0001 135.159 83.0001C132.148 83.0001 129.185 81.3272 127.391 76.6789L118.454 53.5928C117.936 52.2784 117.201 51.4539 116.443 51.4539C115.563 51.4539 115.009 52.2903 115.009 54.9072V74.7909C115.009 79.8813 111.42 83.0121 106.952 83.0121C102.483 83.0121 98.8943 79.8813 98.8943 74.7909V42.7189C98.8943 37.6285 101.749 34.2827 106.217 34.2827C110.685 34.2827 113.323 37.5568 115.31 42.6472L125.536 69.2225C126.018 70.4175 126.668 71.8394 127.656 71.8394C128.86 71.8394 129.522 70.3816 130.004 69.1508L140.892 42.7189C143.241 37.7719 145.36 34.2827 150.491 34.2827C154.96 34.2827 157.814 37.6285 157.814 42.7189V81.7693C157.814 82.0561 157.597 82.2831 157.296 82.2831C156.995 82.2831 156.778 82.0681 156.778 81.7693V55.1582C156.778 52.2186 156.116 51.4539 155.345 51.4539C154.574 51.4539 153.803 52.2903 153.298 53.5928L144.325 74.5758V74.5639Z" fill="#351021"/>
<path d="M210.29 68.0873C209.556 66.6295 208.676 66.271 207.364 66.271H185.528C184.215 66.271 183.251 66.4144 182.3 68.0873L176.145 78.6266C174.459 81.5303 171.894 82.9881 169.039 82.9881C164.499 82.9881 161.632 79.4272 161.632 75.4959C161.632 74.0381 161.993 72.5086 162.873 70.991L181.493 39.1461C183.468 35.8003 185.672 34.0557 189.261 34.0557C194.103 34.0557 196.151 38.2021 199.812 45.3956L218.131 80.9568C218.492 81.614 218.492 81.6857 218.492 81.8291C218.492 82.0442 218.348 82.2712 218.047 82.2712C217.83 82.2712 217.601 82.1995 217.384 81.7574L210.278 68.0873H210.29ZM200.462 49.1118C199.511 47.2238 198.559 45.3358 196.945 45.3358C195.332 45.3358 194.019 48.0244 193.284 49.1955L184.998 63.451C184.552 64.2516 184.552 64.4667 184.552 64.5384C184.552 64.9805 184.841 65.2673 185.504 65.2673H207.34C208.002 65.2673 208.291 64.9805 208.291 64.5384C208.291 64.4667 208.291 64.2516 207.845 63.451L200.438 49.1238L200.462 49.1118Z" fill="#351021"/>
<path d="M229.127 81.7574V53.6167C229.127 50.7847 228.031 49.542 225.02 49.542H211.904C206.773 49.542 203.618 46.1245 203.618 41.9064C203.618 37.6883 206.773 34.2708 211.904 34.2708H247.374C252.505 34.2708 255.661 37.6883 255.661 41.9064C255.661 46.1245 252.505 49.542 247.374 49.542H234.258C231.247 49.542 230.151 50.7728 230.151 53.6167V81.7574C230.151 82.0441 229.934 82.2712 229.633 82.2712C229.332 82.2712 229.115 82.0561 229.115 81.7574H229.127Z" fill="#351021"/>
<path d="M283.446 63.6541C283.446 66.4861 284.542 67.7289 287.553 67.7289H298.477C303.608 67.7289 306.764 71.1464 306.764 75.3645C306.764 79.5826 303.608 83.0001 298.477 83.0001H267.404C262.273 83.0001 259.117 79.5826 259.117 75.3645C259.117 71.1464 262.273 67.7289 267.404 67.7289H278.328C281.339 67.7289 282.435 66.4981 282.435 63.6541V53.6167C282.435 50.7847 281.339 49.542 278.328 49.542H267.404C262.273 49.542 259.117 46.1245 259.117 41.9064C259.117 37.6883 262.273 34.2708 267.404 34.2708H298.477C303.608 34.2708 306.764 37.6883 306.764 41.9064C306.764 46.1245 303.608 49.542 298.477 49.542H287.553C284.542 49.542 283.446 50.7728 283.446 53.6167V63.6541Z" fill="#351021"/>
<path d="M315.7 49.5418C312.689 49.5418 311.593 50.7726 311.593 53.6165V56.8189C311.593 57.6195 311.955 58.1334 312.918 58.1334H346.931C347.22 58.1334 347.449 58.3484 347.449 58.6472C347.449 58.9459 347.232 59.161 346.931 59.161H312.918C312.039 59.161 311.593 59.6031 311.593 60.4754V63.6778C311.593 66.3664 312.545 67.7526 315.7 67.7526H347.726C352.857 67.7526 356.012 71.1701 356.012 75.3882C356.012 79.6063 352.857 83.0238 347.726 83.0238H318.844C313.713 83.0238 310.558 79.6063 310.558 75.3882V41.942C310.558 37.7239 313.713 34.3064 318.844 34.3064H347.726C352.857 34.3064 356.012 37.7239 356.012 41.942C356.012 46.1601 352.857 49.5776 347.726 49.5776H315.7V49.5418Z" fill="#351021"/>
</g>
<defs>
<clipPath id="clip0_3020_1354">
<rect width="356" height="83" fill="white"/>
</clipPath>
</defs>
</svg>
