<svg width="71" height="58" viewBox="0 0 71 58" fill="none" xmlns="http://www.w3.org/2000/svg">
<path d="M18.4092 21.1827C18.4089 17.8309 19.4025 14.5543 21.2644 11.7672C23.1264 8.98016 25.773 6.80781 28.8695 5.52489C31.9661 4.24197 35.3735 3.90611 38.661 4.55977C41.9484 5.21344 44.9682 6.82727 47.3384 9.19719C49.7087 11.5671 51.3229 14.5867 51.977 17.874C52.6311 21.1614 52.2957 24.5689 51.0132 27.6656C49.7307 30.7623 47.5587 33.4092 44.7719 35.2715C41.985 37.1338 38.7086 38.1279 35.3568 38.128C33.1313 38.1282 30.9276 37.6901 28.8715 36.8386C26.8154 35.9871 24.9471 34.739 23.3734 33.1655C21.7996 31.5919 20.5512 29.7238 19.6995 27.6678C18.8477 25.6118 18.4093 23.4082 18.4092 21.1827Z" fill="#351021"/>
<path d="M35.6028 6.33643C35.6028 6.33643 21.3326 14.9393 30.7411 29.5916C30.7411 29.5916 25.3003 26.8501 24.1021 18.8572C24.0658 18.5265 23.6755 18.1331 23.3931 18.9365C20.567 27.0116 24.7861 37.151 36.311 36.6618C47.9295 36.168 50.5661 22.8257 44.5825 14.5852C44.3658 14.2477 44.0539 14.1601 44.2329 14.8117C45.3949 19.0241 43.4597 23.9658 42.7689 25.084C46.242 13.6731 36.3699 6.43458 35.6028 6.33794" fill="#F4F4E4"/>
<path d="M65.4988 56.9496V46.5633H70.9419V47.3433H66.3822V51.1827H70.633V51.9619H66.3822V56.1697H71V56.9496H65.4988ZM60.1078 57.1271C59.4718 57.1765 58.8365 57.0239 58.2923 56.6911C57.7481 56.3582 57.3228 55.8621 57.0771 55.2735C56.9215 54.8334 56.8373 54.3713 56.8279 53.9046H57.7106C57.6925 54.2293 57.7434 54.5542 57.8599 54.8579C57.9764 55.1616 58.1559 55.4372 58.3865 55.6665C58.6172 55.8958 58.8938 56.0736 59.1982 56.1884C59.5025 56.3031 59.8277 56.352 60.1524 56.332C60.4407 56.3575 60.7312 56.3242 61.0062 56.234C61.2813 56.1439 61.5351 55.9988 61.7524 55.8076C61.9698 55.6164 62.146 55.3831 62.2704 55.1218C62.3949 54.8605 62.4649 54.5766 62.4764 54.2874C62.4767 53.9821 62.4017 53.6815 62.258 53.4121C62.1143 53.1428 61.9064 52.9131 61.6526 52.7433C60.8863 52.2481 60.0732 51.829 59.2252 51.4922C58.8637 51.3414 58.5186 51.1539 58.1953 50.9328C57.8738 50.7153 57.6115 50.4214 57.4318 50.0774C57.2522 49.7334 57.1609 49.3501 57.1662 48.9621C57.1662 47.2852 58.637 46.3874 60.166 46.3874C60.7878 46.3402 61.407 46.5071 61.921 46.8603C62.4349 47.2136 62.8126 47.7319 62.9913 48.3294C63.0544 48.5896 63.0888 48.856 63.094 49.1237H62.2257C62.207 48.8071 62.1273 48.4971 61.9909 48.2108C61.8033 47.8783 61.5258 47.6054 61.1902 47.4234C60.8546 47.2413 60.4745 47.1576 60.0935 47.1817C59.8463 47.1597 59.5973 47.1874 59.3611 47.2634C59.1249 47.3393 58.9063 47.4618 58.7183 47.6238C58.5303 47.7857 58.3768 47.9837 58.2667 48.2061C58.1566 48.4284 58.0923 48.6706 58.0775 48.9183C58.0775 51.2416 63.4036 50.7568 63.4036 54.2277C63.4036 56.1108 61.8587 57.1271 60.1078 57.1271ZM51.9715 57.1263C51.3357 57.1757 50.7004 57.0231 50.1564 56.6902C49.6123 56.3574 49.1872 55.8613 48.9416 55.2727C48.7847 54.8329 48.7001 54.3707 48.6909 53.9038H49.5735C49.5557 54.2286 49.6067 54.5535 49.7234 54.8571C49.84 55.1607 50.0196 55.4362 50.2503 55.6655C50.481 55.8947 50.7576 56.0726 51.0619 56.1874C51.3663 56.3021 51.6914 56.3512 52.0161 56.3313C52.3045 56.3569 52.595 56.3236 52.8702 56.2335C53.1453 56.1434 53.3993 55.9984 53.6166 55.8072C53.834 55.616 54.0103 55.3826 54.1348 55.1212C54.2593 54.8599 54.3294 54.5759 54.3408 54.2866C54.3412 53.9813 54.2662 53.6807 54.1225 53.4114C53.9788 53.142 53.7708 52.9123 53.5171 52.7426C52.7505 52.2478 51.9375 51.8288 51.0896 51.4915C50.7281 51.3408 50.383 51.1533 50.0598 50.932C49.7377 50.7151 49.4749 50.4213 49.2951 50.0772C49.1152 49.7331 49.0241 49.3496 49.0299 48.9613C49.0299 47.2844 50.5015 46.3867 52.0304 46.3867C52.6523 46.3394 53.2716 46.5064 53.7854 46.8598C54.2992 47.2132 54.6767 47.7318 54.855 48.3294C54.9181 48.5896 54.9525 48.856 54.9577 49.1237H54.0894C54.0711 48.807 53.9914 48.497 53.8546 48.2108C53.6673 47.8782 53.3899 47.6052 53.0544 47.4232C52.7189 47.2412 52.3389 47.1575 51.9579 47.1817C51.7108 47.1597 51.4618 47.1874 51.2256 47.2634C50.9893 47.3393 50.7708 47.4618 50.5828 47.6238C50.3948 47.7857 50.2412 47.9837 50.1312 48.2061C50.0211 48.4284 49.9568 48.6706 49.942 48.9183C49.942 51.2416 55.2665 50.7568 55.2665 54.2277C55.2665 56.1108 53.7225 57.1263 51.9715 57.1263ZM45.4246 46.5633H46.3367V56.9496H45.4246V46.5633ZM42.6581 54.5954C42.3637 56.3758 40.8642 57.1263 39.185 57.1263C37.7579 57.1263 36.2871 56.5525 35.816 55.0809C35.6881 54.6318 35.6336 54.165 35.6544 53.6985V46.5641H36.537C36.537 48.8874 36.5219 51.197 36.5219 53.5225C36.4912 54.1168 36.6125 54.709 36.8745 55.2433C37.1279 55.6139 37.4756 55.9102 37.8818 56.1015C38.288 56.2927 38.7379 56.3721 39.185 56.3313C39.7257 56.3284 40.2588 56.203 40.7441 55.9643C41.9658 55.3308 41.8185 54.008 41.8185 52.8453V46.5641H42.7163V53.669C42.7187 53.9789 42.6987 54.2885 42.6566 54.5954M30.4024 57.1263C29.7665 57.1757 29.1312 57.0231 28.5872 56.6902C28.0431 56.3574 27.618 55.8613 27.3724 55.2727C27.2155 54.8329 27.1309 54.3707 27.1217 53.9038H28.0044C27.9865 54.2288 28.0376 54.5539 28.1544 54.8576C28.2711 55.1614 28.4509 55.4371 28.6819 55.6664C28.9128 55.8957 29.1897 56.0735 29.4943 56.1881C29.7989 56.3027 30.1243 56.3515 30.4492 56.3313C30.7375 56.3569 31.0281 56.3236 31.3033 56.2335C31.5784 56.1434 31.8324 55.9984 32.0497 55.8072C32.2671 55.616 32.4434 55.3826 32.5679 55.1212C32.6924 54.8599 32.7625 54.5759 32.7739 54.2866C32.7743 53.9813 32.6993 53.6807 32.5556 53.4114C32.4119 53.142 32.2039 52.9123 31.9502 52.7426C31.1836 52.2476 30.3706 51.8286 29.5227 51.4915C29.161 51.3411 28.8159 51.1536 28.4929 50.932C28.1708 50.7151 27.908 50.4213 27.7282 50.0772C27.5483 49.7331 27.4572 49.3496 27.463 48.9613C27.463 47.2844 28.9338 46.3867 30.4635 46.3867C31.0854 46.3394 31.7047 46.5064 32.2185 46.8598C32.7323 47.2132 33.1098 47.7318 33.2881 48.3294C33.3519 48.5895 33.3864 48.8559 33.3908 49.1237H32.5218C32.5022 48.8071 32.422 48.4972 32.2854 48.2108C32.0981 47.8782 31.8208 47.6052 31.4853 47.4232C31.1498 47.2412 30.7697 47.1575 30.3888 47.1817C30.1416 47.1597 29.8926 47.1874 29.6564 47.2634C29.4202 47.3393 29.2016 47.4618 29.0136 47.6238C28.8256 47.7857 28.6721 47.9837 28.562 48.2061C28.4519 48.4284 28.3876 48.6706 28.3728 48.9183C28.3728 51.2416 33.6958 50.7583 33.6958 54.2315C33.6958 56.1146 32.151 57.1301 30.4001 57.1301M20.5929 48.457C18.768 48.457 18.2085 50.2381 18.2085 51.7535C18.2085 53.3141 18.7529 55.0507 20.6246 55.0507C22.4367 55.0507 23.009 53.3277 23.009 51.798C23.009 50.223 22.4933 48.457 20.5929 48.457ZM20.6073 57.1845C17.3696 57.1845 15.3537 54.9322 15.3537 51.7535C15.3537 48.5461 17.3545 46.3232 20.6224 46.3232C23.8592 46.3232 25.8759 48.5884 25.8759 51.7535C25.8759 54.9322 23.8449 57.1845 20.6073 57.1845ZM10.8809 46.5596H13.6337V56.9496H10.8809V46.5596ZM4.61404 52.5334H2.69398V54.9178H4.71748C5.57143 54.9178 6.36573 54.7714 6.36573 53.7407C6.36573 52.6369 5.49743 52.5334 4.61404 52.5334ZM4.48115 48.5748H2.69398V50.6073H4.29164C5.05573 50.6073 5.86589 50.5318 5.86589 49.5624C5.86589 48.7092 5.18636 48.577 4.48115 48.577M7.70441 56.3766C6.62394 56.8395 5.44811 57.0363 4.27578 56.9504H0V46.5596H4.26143C5.57143 46.5596 7.20608 46.589 8.08646 47.7367C8.41508 48.1779 8.58652 48.7164 8.57346 49.2664C8.59101 49.7383 8.44759 50.2021 8.16673 50.5818C7.88588 50.9614 7.48429 51.2343 7.02789 51.3556C7.63144 51.4409 8.18298 51.7439 8.57873 52.2075C8.97449 52.6711 9.18716 53.2634 9.17673 53.8729C9.17881 54.3838 9.04318 54.8858 8.78408 55.3261C8.52499 55.7664 8.15202 56.1288 7.70441 56.3751" fill="#351021"/>
<path d="M61.2629 11.2697C60.6369 11.8505 59.9627 12.3772 59.2477 12.844C59.3271 13.9731 59.3163 15.1067 59.2152 16.2341C58.5188 16.9249 57.727 17.5125 56.864 17.979C56.8882 16.9566 56.87 15.7373 56.8157 14.4869C55.6001 15.2857 54.5687 15.9366 54.3799 16.0483C54.3044 14.8614 54.278 14.4363 54.1678 13.1173C54.9266 12.6341 55.7684 12.0474 56.6163 11.4101C56.5182 10.307 56.3966 9.29603 56.2569 8.52513C57.049 7.71649 57.4612 7.33142 58.4043 6.29324C58.5606 7.08603 58.7599 8.24275 58.9328 9.53991C59.6756 8.90254 60.38 8.22182 61.0424 7.5013C60.7917 5.08193 60.2927 2.69478 59.5534 0.377519L59.4198 0L59.225 0.346563C59.225 0.346563 59.1623 0.457553 59.04 0.660658C58.2276 2.01293 54.8095 7.419 50.2159 10.8061C51.6178 12.8108 52.5993 15.0787 53.1009 17.473C53.6026 19.8673 53.6142 22.3384 53.1349 24.7373C53.7772 24.4036 54.4519 24.0462 55.1591 23.6652C56.3865 23.0471 57.5391 22.2906 58.5945 21.4106C59.661 20.3292 60.3898 18.9608 60.692 17.4723V17.4678V17.461C61.0783 15.4934 61.269 13.4923 61.2613 11.4871C61.2613 11.4116 61.2613 11.3361 61.2613 11.2667M19.0857 29.1868C12.772 32.635 14.344 36.6616 19.0396 38.8973C24.5778 41.5399 35.6444 42.8401 40.9742 40.7622C31.1587 41.2908 22.3905 37.847 19.0857 29.1868Z" fill="#351021"/>
</svg>
