<svg width="487" height="198" viewBox="0 0 487 198" fill="none" xmlns="http://www.w3.org/2000/svg">
<g clip-path="url(#clip0_3020_894)" filter="url(#filter0_dd_3020_894)">
<path d="M327.689 29.5688C327.689 32.5284 329.652 34.8029 333.052 34.8029C334.174 34.8029 335.164 34.5658 335.952 34.1706C336.022 34.1267 336.119 34.1004 336.206 34.1004C336.531 34.1004 336.793 34.3375 336.793 34.6888C336.793 34.8995 336.68 35.1103 336.469 35.2069C335.532 35.6987 334.358 35.9797 333.052 35.9797C328.907 35.9797 326.524 33.187 326.524 29.5776C326.524 25.6345 329.494 23.0087 332.912 23.0087C334.27 23.0087 335.532 23.2897 336.373 23.7551C336.557 23.8693 336.68 24.0625 336.68 24.2733C336.68 24.5543 336.443 24.8617 336.093 24.8617C335.996 24.8617 335.908 24.8353 335.812 24.7914C335.111 24.4138 334.033 24.1855 332.912 24.1855C330.099 24.1855 327.689 26.3458 327.689 29.5864V29.5688Z" fill="#F4F4E4"/>
<path d="M347.431 32.3616H340.824C340.377 33.4857 339.983 34.522 339.676 35.3651C339.58 35.6198 339.326 35.7603 339.089 35.7603C338.809 35.7603 338.529 35.5056 338.529 35.1543C338.529 35.0577 338.555 34.9699 338.765 34.4254C339.817 31.5888 341.832 26.9431 343.444 23.3513C343.541 23.1405 343.768 23 344.005 23H344.101C344.338 23 344.566 23.1142 344.662 23.3249C346.345 26.9607 348.64 32.0982 349.552 34.4254C349.788 34.9875 349.806 35.1016 349.806 35.1719C349.806 35.4793 349.525 35.7603 349.219 35.7603C348.982 35.7603 348.772 35.6198 348.684 35.3827C348.36 34.5396 347.913 33.4857 347.422 32.3529L347.431 32.3616ZM341.315 31.1849H346.932C346.02 29.0947 344.986 26.8202 344.049 24.853C343.181 26.8465 342.174 29.1035 341.306 31.1849H341.315Z" fill="#F4F4E4"/>
<path d="M350.516 24.5984C350.402 24.2734 350.279 23.9221 350.279 23.7728C350.279 23.4918 350.463 23.1844 350.866 23.1844C351.103 23.1844 351.357 23.325 351.427 23.5796C352.224 26.1176 354.73 31.624 355.966 34.1181C357.228 31.5362 359.523 26.4953 360.487 23.606C360.584 23.3513 360.812 23.2108 361.074 23.2108C361.381 23.2108 361.635 23.4918 361.635 23.8168C361.635 23.9134 361.565 24.168 361.355 24.7564C360.373 27.4086 357.517 33.6965 356.483 35.6901C356.386 35.8745 356.176 35.9974 355.966 35.9974C355.729 35.9974 355.519 35.8306 355.379 35.5495C354.441 33.7668 351.374 27.031 350.507 24.5896L350.516 24.5984Z" fill="#F4F4E4"/>
<path d="M364.167 23.7992C364.167 23.4918 364.404 23.2108 364.684 23.2108H371.239C371.563 23.2108 371.826 23.4654 371.826 23.7992C371.826 24.1065 371.572 24.3875 371.239 24.3875H365.342V28.4712H370.231C370.555 28.4712 370.818 28.7259 370.818 29.0596C370.818 29.367 370.564 29.648 370.231 29.648H365.342V34.6011H371.291C371.624 34.6011 371.878 34.8557 371.878 35.1894C371.878 35.4968 371.624 35.7778 371.291 35.7778H364.763C364.457 35.7778 364.176 35.4968 364.176 35.1894V23.7992H364.167Z" fill="#F4F4E4"/>
<path d="M146.316 74.6998C146.316 72.7239 145.624 71.7052 143.328 71.7052H117.733C115.656 71.7052 114.745 72.5043 114.745 74.6998V83.0867C114.745 83.2975 114.587 83.4643 114.368 83.4643C114.149 83.4643 113.991 83.3062 113.991 83.0867V49.1002C113.991 48.8895 114.149 48.7226 114.368 48.7226C114.587 48.7226 114.745 48.8807 114.745 49.1002V57.4871C114.745 59.3576 115.437 60.4817 117.733 60.4817H143.328C145.457 60.4817 146.316 59.6299 146.316 57.4871V49.1002C146.316 48.8895 146.474 48.7226 146.693 48.7226C146.912 48.7226 147.069 48.8807 147.069 49.1002V83.0867C147.069 83.2975 146.912 83.4643 146.693 83.4643C146.474 83.4643 146.316 83.3062 146.316 83.0867V74.6998Z" fill="#F4F4E4"/>
<path d="M153.834 59.4103C151.643 59.4103 150.846 60.3149 150.846 62.405V64.7586C150.846 65.347 151.109 65.7246 151.81 65.7246H176.555C176.765 65.7246 176.932 65.8827 176.932 66.1022C176.932 66.3218 176.774 66.4798 176.555 66.4798H151.81C151.17 66.4798 150.846 66.8048 150.846 67.4459V69.7995C150.846 71.7754 151.538 72.7941 153.834 72.7941H177.133C180.866 72.7941 183.162 75.3058 183.162 78.4059C183.162 81.5059 180.866 84.0176 177.133 84.0176H156.121C152.388 84.0176 150.093 81.5059 150.093 78.4059V53.8249C150.093 50.7249 152.388 48.2132 156.121 48.2132H177.133C180.866 48.2132 183.162 50.7249 183.162 53.8249C183.162 56.925 180.866 59.4367 177.133 59.4367H153.834V59.4103ZM160.897 47.335C160.581 47.5458 160.362 47.66 160.152 47.66C159.942 47.66 159.828 47.5019 159.828 47.3965C159.828 47.1857 159.933 47.0189 160.204 46.8608L172.095 39.4839C172.419 39.2731 172.63 39.1677 172.84 39.1677C173.05 39.1677 173.164 39.3258 173.164 39.4312C173.164 39.642 173.059 39.8088 172.787 39.9669L160.897 47.3438V47.335Z" fill="#F4F4E4"/>
<path d="M219 77.7999C217.239 81.4357 216.065 84 212.332 84C210.141 84 207.986 82.7705 206.68 79.3543L200.178 62.3874C199.802 61.4214 199.267 60.8155 198.715 60.8155C198.075 60.8155 197.672 61.4302 197.672 63.3535V77.9668C197.672 81.7079 195.061 84.0088 191.81 84.0088C188.559 84.0088 185.948 81.7079 185.948 77.9668V54.3958C185.948 50.6546 188.025 48.1957 191.276 48.1957C194.527 48.1957 196.446 50.602 197.891 54.3431L205.331 73.8743C205.681 74.7525 206.154 75.7976 206.873 75.7976C207.749 75.7976 208.231 74.7262 208.582 73.8216L216.503 54.3958C218.212 50.76 219.754 48.1957 223.487 48.1957C226.737 48.1957 228.814 50.6546 228.814 54.3958V83.0955C228.814 83.3062 228.656 83.4731 228.437 83.4731C228.218 83.4731 228.061 83.315 228.061 83.0955V63.5379C228.061 61.3775 227.579 60.8155 227.018 60.8155C226.457 60.8155 225.896 61.4302 225.528 62.3874L219 77.8087V77.7999Z" fill="#F4F4E4"/>
<path d="M266.992 73.04C266.458 71.9686 265.818 71.7052 264.863 71.7052H248.976C248.021 71.7052 247.32 71.8106 246.628 73.04L242.151 80.7858C240.924 82.9198 239.057 83.9912 236.981 83.9912C233.677 83.9912 231.592 81.3742 231.592 78.4849C231.592 77.4135 231.855 76.2894 232.494 75.1741L246.041 51.77C247.478 49.311 249.082 48.0288 251.693 48.0288C255.215 48.0288 256.705 51.0762 259.369 56.363L272.696 82.4983C272.959 82.9813 272.959 83.034 272.959 83.1394C272.959 83.2975 272.854 83.4643 272.635 83.4643C272.477 83.4643 272.311 83.4116 272.153 83.0867L266.983 73.04H266.992ZM259.842 59.0942C259.15 57.7066 258.457 56.319 257.283 56.319C256.109 56.319 255.154 58.295 254.619 59.1556L248.591 69.6326C248.267 70.221 248.267 70.3791 248.267 70.4318C248.267 70.7567 248.477 70.9675 248.959 70.9675H264.845C265.327 70.9675 265.537 70.7567 265.537 70.4318C265.537 70.3791 265.537 70.221 265.213 69.6326L259.824 59.103L259.842 59.0942Z" fill="#F4F4E4"/>
<path d="M280.697 83.0867V62.405C280.697 60.3237 279.899 59.4103 277.709 59.4103H268.166C264.433 59.4103 262.138 56.8987 262.138 53.7986C262.138 50.6986 264.433 48.1869 268.166 48.1869H293.972C297.704 48.1869 300 50.6986 300 53.7986C300 56.8987 297.704 59.4103 293.972 59.4103H284.429C282.239 59.4103 281.441 60.3149 281.441 62.405V83.0867C281.441 83.2975 281.284 83.4643 281.065 83.4643C280.845 83.4643 280.688 83.3062 280.688 83.0867H280.697Z" fill="#F4F4E4"/>
<path d="M320.215 69.7819C320.215 71.8633 321.013 72.7766 323.203 72.7766H331.151C334.884 72.7766 337.179 75.2882 337.179 78.3883C337.179 81.4884 334.884 84 331.151 84H308.544C304.811 84 302.515 81.4884 302.515 78.3883C302.515 75.2882 304.811 72.7766 308.544 72.7766H316.491C318.682 72.7766 319.479 71.872 319.479 69.7819V62.405C319.479 60.3237 318.682 59.4103 316.491 59.4103H308.544C304.811 59.4103 302.515 56.8987 302.515 53.7986C302.515 50.6986 304.811 48.1869 308.544 48.1869H331.151C334.884 48.1869 337.179 50.6986 337.179 53.7986C337.179 56.8987 334.884 59.4103 331.151 59.4103H323.203C321.013 59.4103 320.215 60.3149 320.215 62.405V69.7819Z" fill="#F4F4E4"/>
<path d="M343.681 59.4103C341.49 59.4103 340.693 60.3148 340.693 62.405V64.7585C340.693 65.3469 340.956 65.7246 341.657 65.7246H366.402C366.612 65.7246 366.779 65.8827 366.779 66.1022C366.779 66.3218 366.621 66.4798 366.402 66.4798H341.657C341.017 66.4798 340.693 66.8048 340.693 67.4459V69.7994C340.693 71.7754 341.385 72.7941 343.681 72.7941H366.98C370.713 72.7941 373.009 75.3058 373.009 78.4058C373.009 81.5059 370.713 84.0176 366.98 84.0176H345.968C342.235 84.0176 339.939 81.5059 339.939 78.4058V53.8249C339.939 50.7249 342.235 48.2132 345.968 48.2132H366.98C370.713 48.2132 373.009 50.7249 373.009 53.8249C373.009 56.925 370.713 59.4366 366.98 59.4366H343.681V59.4103Z" fill="#F4F4E4"/>
</g>
<defs>
<filter id="filter0_dd_3020_894" x="0" y="-91" width="487" height="289" filterUnits="userSpaceOnUse" color-interpolation-filters="sRGB">
<feFlood flood-opacity="0" result="BackgroundImageFix"/>
<feColorMatrix in="SourceAlpha" type="matrix" values="0 0 0 0 0 0 0 0 0 0 0 0 0 0 0 0 0 0 127 0" result="hardAlpha"/>
<feOffset/>
<feGaussianBlur stdDeviation="47"/>
<feComposite in2="hardAlpha" operator="out"/>
<feColorMatrix type="matrix" values="0 0 0 0 0 0 0 0 0 0 0 0 0 0 0 0 0 0 1 0"/>
<feBlend mode="normal" in2="BackgroundImageFix" result="effect1_dropShadow_3020_894"/>
<feColorMatrix in="SourceAlpha" type="matrix" values="0 0 0 0 0 0 0 0 0 0 0 0 0 0 0 0 0 0 127 0" result="hardAlpha"/>
<feOffset/>
<feGaussianBlur stdDeviation="57"/>
<feComposite in2="hardAlpha" operator="out"/>
<feColorMatrix type="matrix" values="0 0 0 0 0 0 0 0 0 0 0 0 0 0 0 0 0 0 1 0"/>
<feBlend mode="normal" in2="effect1_dropShadow_3020_894" result="effect2_dropShadow_3020_894"/>
<feBlend mode="normal" in="SourceGraphic" in2="effect2_dropShadow_3020_894" result="shape"/>
</filter>
<clipPath id="clip0_3020_894">
<rect width="259" height="61" fill="white" transform="translate(114 23)"/>
</clipPath>
</defs>
</svg>
