<svg width="152" height="46" viewBox="0 0 152 46" fill="none" xmlns="http://www.w3.org/2000/svg">
<g clip-path="url(#clip0_3023_1042)">
<mask id="mask0_3023_1042" style="mask-type:luminance" maskUnits="userSpaceOnUse" x="0" y="1" width="18" height="21">
<path d="M0 1.01099V21.4486H17.6454V1.01099H0H0Z" fill="white"/>
</mask>
<g mask="url(#mask0_3023_1042)">
<path fill-rule="evenodd" clip-rule="evenodd" d="M17.6455 20.3193C16.2491 20.7948 13.6057 21.4486 10.9613 21.4486C7.30823 21.4486 4.66415 20.5274 2.82236 18.7755C1.01076 17.0224 0 14.4086 0 11.4672C0.0301933 4.81319 4.87155 1.01099 11.4375 1.01099C14.0212 1.01099 16.0115 1.51493 16.992 1.961L16.0409 5.61547C14.9425 5.10973 13.6057 4.75424 11.4073 4.75424C7.6346 4.75424 4.75329 6.89186 4.75329 11.23C4.75329 15.3884 7.36682 17.7949 11.0806 17.7949C12.091 17.7949 12.922 17.6759 13.279 17.5271V14.8582H10.1895V11.3227H17.6455V20.3193Z" fill="#351021"/>
</g>
<path fill-rule="evenodd" clip-rule="evenodd" d="M27.9461 14.3784C25.5694 14.3784 23.728 14.9427 23.728 16.6652C23.728 17.8237 24.5005 18.3887 25.5105 18.3887C26.609 18.3887 27.5597 17.6457 27.8569 16.7245C27.9159 16.4876 27.9461 16.2202 27.9461 15.9535V14.3784ZM32.313 17.7352C32.313 19.1022 32.3719 20.4379 32.5506 21.2402H28.4806L28.2135 19.7841H28.124C27.1736 20.944 25.6884 21.5669 23.9652 21.5669C21.025 21.5669 19.272 19.4286 19.272 17.1112C19.272 13.3389 22.6587 11.5564 27.7973 11.5564V11.3781C27.7973 10.6057 27.3818 9.50648 25.1539 9.50648C23.668 9.50648 22.0943 10.0115 21.1432 10.5762L20.3115 7.69488C21.3215 7.13019 23.3121 6.38794 25.9555 6.38794C30.7983 6.38794 32.313 9.23869 32.313 12.6552V17.7352Z" fill="#351021"/>
<mask id="mask1_3023_1042" style="mask-type:luminance" maskUnits="userSpaceOnUse" x="34" y="6" width="15" height="16">
<path d="M34.5835 21.567H48.457V6.71484H34.5835V21.567Z" fill="white"/>
</mask>
<g mask="url(#mask1_3023_1042)">
<path fill-rule="evenodd" clip-rule="evenodd" d="M48.338 16.5766C48.338 18.4773 48.3973 20.0229 48.457 21.2404H44.5358L44.328 19.1908H44.2393C43.6738 20.0826 42.3076 21.5671 39.693 21.5671C36.7233 21.5671 34.5835 19.7257 34.5835 15.2398V6.71484H39.0992V14.527C39.0992 16.6359 39.7829 17.9126 41.3867 17.9126C42.6343 17.9126 43.3773 17.0514 43.6447 16.3386C43.763 16.0708 43.8227 15.7441 43.8227 15.3588V6.71484H48.338V16.5766Z" fill="#351021"/>
</g>
<mask id="mask2_3023_1042" style="mask-type:luminance" maskUnits="userSpaceOnUse" x="0" y="0" width="152" height="22">
<path d="M0 21.567H151.077V0H0V21.567Z" fill="white"/>
</mask>
<g mask="url(#mask2_3023_1042)">
<path fill-rule="evenodd" clip-rule="evenodd" d="M50.9209 21.2405H55.4366V0.149414H50.9209V21.2405Z" fill="#351021"/>
</g>
<mask id="mask3_3023_1042" style="mask-type:luminance" maskUnits="userSpaceOnUse" x="0" y="0" width="152" height="22">
<path d="M0 21.567H151.077V0H0V21.567Z" fill="white"/>
</mask>
<g mask="url(#mask3_3023_1042)">
<path fill-rule="evenodd" clip-rule="evenodd" d="M63.069 2.76294V6.71467H66.3076V10.0413H63.069V15.3288C63.069 17.0818 63.5148 17.8837 64.8523 17.8837C65.4752 17.8837 65.7732 17.8542 66.1887 17.7647L66.2178 21.1805C65.6538 21.3897 64.555 21.5669 63.307 21.5669C61.8516 21.5669 60.6335 21.0626 59.8908 20.3193C59.0591 19.4581 58.6432 18.062 58.6432 16.0117V10.0413H56.7119V6.71467H58.6432V3.98146L63.069 2.76294Z" fill="#351021"/>
</g>
<mask id="mask4_3023_1042" style="mask-type:luminance" maskUnits="userSpaceOnUse" x="0" y="0" width="152" height="22">
<path d="M0 21.567H151.077V0H0V21.567Z" fill="white"/>
</mask>
<g mask="url(#mask4_3023_1042)">
<path fill-rule="evenodd" clip-rule="evenodd" d="M115.803 21.2407H120.318V0.149529H115.803V21.2407ZM130.626 15.9532C130.626 16.2203 130.596 16.4877 130.537 16.7242C130.24 17.6459 129.289 18.3888 128.19 18.3888C127.18 18.3888 126.408 17.8238 126.408 16.6653C126.408 14.9425 128.25 14.3785 130.626 14.3785V15.9532ZM134.993 12.6553C134.993 9.2388 133.478 6.38805 128.636 6.38805C125.992 6.38805 124.002 7.1303 122.991 7.69535L123.823 10.5759C124.774 10.0116 126.348 9.50659 127.834 9.50659C130.062 9.50659 130.477 10.6058 130.477 11.3782V11.5565C125.338 11.5565 121.952 13.339 121.952 17.1114C121.952 19.4291 123.704 21.567 126.645 21.567C128.369 21.567 129.853 20.9441 130.804 19.7845H130.893L131.16 21.2407H135.231C135.052 20.438 134.993 19.1023 134.993 17.7354V12.6553ZM150.959 16.5765V6.71442H146.443V15.3591C146.443 15.744 146.383 16.0711 146.265 16.3386C145.998 17.0513 145.255 17.9126 144.007 17.9126C142.403 17.9126 141.719 16.6355 141.719 14.5273V6.71442H137.204V15.2401C137.204 19.7256 139.343 21.567 142.314 21.567C144.928 21.567 146.295 20.0825 146.858 19.1907H146.948L147.156 21.2407H151.077C151.018 20.0229 150.959 18.4772 150.959 16.5765ZM92.1369 1.21888L90.0273 7.8722C89.3444 10.1306 88.6611 12.7445 88.1266 15.0618H88.0076C87.5615 12.7143 86.9677 10.219 86.3143 7.93186L84.3538 1.21888H78.3231L77.3936 15.789C76.9762 16.4079 76.2861 16.8119 75.1208 16.8181H73.7901C73.0062 16.8159 72.4965 17.0352 72.1949 17.3644C71.8937 17.6922 71.8096 18.1023 71.8096 18.4654V18.5941H72.3365L72.3491 18.479C72.3836 17.9992 73.0468 17.7932 73.5939 17.7932H74.2348C74.2046 19.4068 73.1712 20.5703 71.4958 20.575C70.1285 20.5746 68.7885 19.6149 68.7856 18.2091C68.7885 16.803 70.095 15.909 71.3962 15.9083C71.6787 15.9072 71.8754 15.9015 72.0296 15.8648C72.178 15.8411 72.3283 15.7214 72.3157 15.5708C72.3283 15.4417 72.2129 15.3105 72.0515 15.2577C71.8847 15.1955 71.6414 15.1502 71.2384 15.0938C70.2341 14.8756 69.5785 13.9087 69.5817 13.1877C69.5907 12.1061 70.3923 11.4717 71.6245 11.4612C72.7434 11.4677 73.375 12.0964 73.6704 13.2017L73.6945 13.3002L74.0619 13.3016H74.2272L74.2046 13.1564C74.1064 12.4982 74.0123 11.8308 73.9778 11.1676L73.976 11.0982L73.9138 11.0644C73.2883 10.7089 72.4073 10.5662 71.576 10.5662C70.0131 10.5684 68.3302 11.4656 68.3269 13.1877C68.3197 14.3623 68.9333 15.0032 69.8431 15.4532C68.4822 15.7379 67.5239 16.7659 67.5293 18.2246C67.5333 20.4208 69.5113 21.4671 71.4958 21.4707H71.5148C73.8771 21.4707 75.3979 19.9592 75.4874 17.7835C76.317 17.7188 76.895 17.4679 77.3098 17.106L77.046 21.2407H81.2346L81.621 13.6355C81.7396 11.1403 81.8586 8.05048 81.9477 5.34746H82.007C82.5117 7.99153 83.1655 10.8135 83.819 13.1895L85.958 20.9136H89.4932L91.9288 13.101C92.7005 10.7539 93.5323 7.90275 94.1857 5.34746H94.2461C94.2461 8.28879 94.3349 11.1705 94.4237 13.5759L94.7504 21.2407H99.1468L98.0778 1.21888H92.1369ZM108.705 21.2407H113.22V0.149529H108.705V21.2407ZM101.606 21.2407H106.122V6.71442H101.606V21.2407ZM103.894 0C102.349 0 101.339 1.04023 101.339 2.40648C101.339 3.74326 102.319 4.81332 103.834 4.81332H103.864C105.438 4.81332 106.418 3.74326 106.418 2.40648C106.389 1.04023 105.438 0 103.894 0Z" fill="#351021"/>
</g>
</g>
<path d="M31.0481 42V32.816H33.3161C34.2401 32.816 35.0147 32.9933 35.6401 33.348C36.2747 33.6933 36.7554 34.2067 37.0821 34.888C37.4087 35.5693 37.5721 36.3953 37.5721 37.366C37.5721 38.346 37.4087 39.1813 37.0821 39.872C36.7647 40.5627 36.2934 41.09 35.6681 41.454C35.0427 41.818 34.2774 42 33.3721 42H31.0481ZM32.2101 41.048H33.2321C33.9321 41.048 34.5107 40.9033 34.9681 40.614C35.4347 40.3153 35.7847 39.8953 36.0181 39.354C36.2514 38.8033 36.3681 38.1407 36.3681 37.366C36.3681 36.6007 36.2514 35.9473 36.0181 35.406C35.7847 34.8647 35.4347 34.4587 34.9681 34.188C34.5107 33.908 33.9321 33.768 33.2321 33.768H32.2101V41.048ZM42.8446 42.168C42.1633 42.168 41.5426 42.028 40.9826 41.748C40.4319 41.468 39.9933 41.062 39.6666 40.53C39.3399 39.9887 39.1766 39.34 39.1766 38.584C39.1766 37.8467 39.3399 37.212 39.6666 36.68C39.9933 36.148 40.4179 35.742 40.9406 35.462C41.4726 35.1727 42.0419 35.028 42.6486 35.028C43.3019 35.028 43.8573 35.1633 44.3146 35.434C44.7813 35.6953 45.1359 36.064 45.3786 36.54C45.6306 37.016 45.7566 37.576 45.7566 38.22C45.7566 38.3507 45.7519 38.4767 45.7426 38.598C45.7333 38.7193 45.7193 38.8267 45.7006 38.92H39.9466V38.024H45.0146L44.7206 38.346C44.7206 37.5433 44.5339 36.9413 44.1606 36.54C43.7966 36.1387 43.3019 35.938 42.6766 35.938C42.2566 35.938 41.8646 36.0407 41.5006 36.246C41.1459 36.4513 40.8613 36.75 40.6466 37.142C40.4319 37.534 40.3246 38.0147 40.3246 38.584C40.3246 39.172 40.4413 39.662 40.6746 40.054C40.9079 40.446 41.2253 40.7447 41.6266 40.95C42.0279 41.146 42.4806 41.244 42.9846 41.244C43.3953 41.244 43.7639 41.188 44.0906 41.076C44.4266 40.9547 44.7486 40.796 45.0566 40.6L45.4766 41.356C45.1406 41.58 44.7533 41.7713 44.3146 41.93C43.8853 42.0887 43.3953 42.168 42.8446 42.168ZM47.9211 44.87V35.196H48.8731L48.9711 36.064H49.0131C49.3305 35.7653 49.6945 35.518 50.1051 35.322C50.5251 35.126 50.9451 35.028 51.3651 35.028C51.9811 35.028 52.4945 35.1727 52.9051 35.462C53.3251 35.742 53.6425 36.1433 53.8571 36.666C54.0718 37.1793 54.1791 37.7907 54.1791 38.5C54.1791 39.2653 54.0345 39.9233 53.7451 40.474C53.4558 41.0247 53.0778 41.4447 52.6111 41.734C52.1445 42.0233 51.6358 42.168 51.0851 42.168C50.7771 42.168 50.4365 42.0933 50.0631 41.944C49.6991 41.7853 49.3631 41.566 49.0551 41.286H49.0131L49.0691 42.574V44.87H47.9211ZM50.8891 41.202C51.2905 41.202 51.6498 41.0947 51.9671 40.88C52.2845 40.6653 52.5318 40.3573 52.7091 39.956C52.8958 39.5453 52.9891 39.06 52.9891 38.5C52.9891 38.0053 52.9238 37.5713 52.7931 37.198C52.6625 36.8153 52.4571 36.5213 52.1771 36.316C51.8971 36.1013 51.5285 35.994 51.0711 35.994C50.7631 35.994 50.4365 36.078 50.0911 36.246C49.7551 36.4047 49.4145 36.6613 49.0691 37.016V40.404C49.3958 40.6933 49.7225 40.8987 50.0491 41.02C50.3851 41.1413 50.6651 41.202 50.8891 41.202ZM58.4577 42.168C57.6457 42.168 57.0483 41.9347 56.6657 41.468C56.283 41.0013 56.0917 40.32 56.0917 39.424V35.196H57.2537V39.27C57.2537 39.914 57.3703 40.3947 57.6037 40.712C57.8463 41.02 58.2523 41.174 58.8217 41.174C59.2137 41.174 59.5683 41.076 59.8857 40.88C60.2123 40.6747 60.5623 40.3527 60.9357 39.914V35.196H62.0837V42H61.1457L61.0477 40.81H60.9917C60.6463 41.202 60.2683 41.5287 59.8577 41.79C59.447 42.042 58.9803 42.168 58.4577 42.168ZM67.8322 42V36.134H64.6682V35.196H68.9802V42H67.8322ZM68.2802 33.768C68.0189 33.768 67.7995 33.6887 67.6222 33.53C67.4449 33.362 67.3562 33.1427 67.3562 32.872C67.3562 32.6013 67.4449 32.3867 67.6222 32.228C67.7995 32.06 68.0189 31.976 68.2802 31.976C68.5415 31.976 68.7609 32.06 68.9382 32.228C69.1155 32.3867 69.2042 32.6013 69.2042 32.872C69.2042 33.1427 69.1155 33.362 68.9382 33.53C68.7609 33.6887 68.5415 33.768 68.2802 33.768ZM76.1427 42.168C75.4801 42.168 74.8594 42.0607 74.2807 41.846C73.7021 41.6313 73.2074 41.384 72.7967 41.104L73.3287 40.348C73.7207 40.628 74.1547 40.852 74.6307 41.02C75.1067 41.188 75.6574 41.272 76.2827 41.272C76.8614 41.272 77.2907 41.1647 77.5707 40.95C77.8601 40.7353 78.0047 40.488 78.0047 40.208C78.0047 40.0773 77.9767 39.956 77.9207 39.844C77.8741 39.732 77.7761 39.6247 77.6267 39.522C77.4867 39.4193 77.2767 39.3213 76.9967 39.228C76.7167 39.1347 76.3434 39.0413 75.8767 38.948C74.9901 38.7613 74.3227 38.5093 73.8747 38.192C73.4361 37.8747 73.2167 37.464 73.2167 36.96C73.2167 36.4093 73.4547 35.952 73.9307 35.588C74.4067 35.2147 75.1114 35.028 76.0447 35.028C76.5674 35.028 77.0714 35.1167 77.5567 35.294C78.0421 35.462 78.4527 35.6627 78.7887 35.896L78.2287 36.638C77.9207 36.414 77.5707 36.2413 77.1787 36.12C76.7867 35.9893 76.3761 35.924 75.9467 35.924C75.5547 35.924 75.2421 35.9707 75.0087 36.064C74.7847 36.148 74.6214 36.2647 74.5187 36.414C74.4254 36.5633 74.3787 36.7267 74.3787 36.904C74.3787 37.1933 74.5327 37.422 74.8407 37.59C75.1581 37.7487 75.6621 37.898 76.3527 38.038C77.1087 38.1967 77.6874 38.374 78.0887 38.57C78.4994 38.766 78.7794 38.99 78.9287 39.242C79.0874 39.494 79.1667 39.7927 79.1667 40.138C79.1667 40.5113 79.0501 40.852 78.8167 41.16C78.5834 41.4587 78.2427 41.7013 77.7947 41.888C77.3467 42.0747 76.7961 42.168 76.1427 42.168ZM89.6138 42V41.314C90.6218 40.4273 91.4711 39.648 92.1618 38.976C92.8618 38.2947 93.3938 37.6833 93.7578 37.142C94.1218 36.6007 94.3038 36.0827 94.3038 35.588C94.3038 35.0747 94.1451 34.6547 93.8278 34.328C93.5105 34.0013 93.0205 33.838 92.3578 33.838C91.9378 33.838 91.5458 33.9407 91.1818 34.146C90.8271 34.3513 90.5051 34.608 90.2158 34.916L89.5578 34.258C89.9591 33.8473 90.3885 33.5207 90.8458 33.278C91.3125 33.026 91.8631 32.9 92.4978 32.9C93.0951 32.9 93.6085 33.012 94.0378 33.236C94.4765 33.4507 94.8125 33.754 95.0458 34.146C95.2885 34.538 95.4098 35 95.4098 35.532C95.4098 36.092 95.2371 36.6567 94.8918 37.226C94.5465 37.7953 94.0611 38.3973 93.4358 39.032C92.8198 39.6573 92.1058 40.3433 91.2938 41.09C91.5738 41.062 91.8538 41.0433 92.1338 41.034C92.4138 41.0153 92.6891 41.006 92.9598 41.006H95.8998V42H89.6138ZM101.186 42.168C100.524 42.168 99.9543 41.986 99.4783 41.622C99.0023 41.2487 98.6337 40.7167 98.3723 40.026C98.111 39.3353 97.9803 38.4953 97.9803 37.506C97.9803 36.0033 98.265 34.86 98.8343 34.076C99.413 33.292 100.197 32.9 101.186 32.9C102.185 32.9 102.969 33.292 103.538 34.076C104.108 34.86 104.392 36.0033 104.392 37.506C104.392 38.4953 104.262 39.3353 104 40.026C103.748 40.7167 103.38 41.2487 102.894 41.622C102.418 41.986 101.849 42.168 101.186 42.168ZM101.186 41.244C101.606 41.244 101.975 41.1133 102.292 40.852C102.61 40.5813 102.857 40.1707 103.034 39.62C103.221 39.06 103.314 38.3553 103.314 37.506C103.314 36.6473 103.221 35.9473 103.034 35.406C102.857 34.8647 102.61 34.468 102.292 34.216C101.975 33.9547 101.606 33.824 101.186 33.824C100.776 33.824 100.407 33.9547 100.08 34.216C99.763 34.468 99.511 34.8647 99.3243 35.406C99.147 35.9473 99.0583 36.6473 99.0583 37.506C99.0583 38.3553 99.147 39.06 99.3243 39.62C99.511 40.1707 99.763 40.5813 100.08 40.852C100.407 41.1133 100.776 41.244 101.186 41.244ZM101.186 38.346C100.953 38.346 100.748 38.262 100.57 38.094C100.402 37.926 100.318 37.6973 100.318 37.408C100.318 37.1187 100.402 36.8947 100.57 36.736C100.748 36.568 100.953 36.484 101.186 36.484C101.429 36.484 101.634 36.568 101.802 36.736C101.97 36.8947 102.054 37.1187 102.054 37.408C102.054 37.6973 101.97 37.926 101.802 38.094C101.634 38.262 101.429 38.346 101.186 38.346ZM106.739 42V41.048H109.315V34.468H107.313V33.726C107.668 33.6793 107.98 33.6233 108.251 33.558C108.522 33.4927 108.769 33.4227 108.993 33.348C109.217 33.264 109.422 33.1707 109.609 33.068H110.463V41.048H112.801V42H106.739ZM114.797 42V41.314C115.805 40.4273 116.655 39.648 117.345 38.976C118.045 38.2947 118.577 37.6833 118.941 37.142C119.305 36.6007 119.487 36.0827 119.487 35.588C119.487 35.0747 119.329 34.6547 119.011 34.328C118.694 34.0013 118.204 33.838 117.541 33.838C117.121 33.838 116.729 33.9407 116.365 34.146C116.011 34.3513 115.689 34.608 115.399 34.916L114.741 34.258C115.143 33.8473 115.572 33.5207 116.029 33.278C116.496 33.026 117.047 32.9 117.681 32.9C118.279 32.9 118.792 33.012 119.221 33.236C119.66 33.4507 119.996 33.754 120.229 34.146C120.472 34.538 120.593 35 120.593 35.532C120.593 36.092 120.421 36.6567 120.075 37.226C119.73 37.7953 119.245 38.3973 118.619 39.032C118.003 39.6573 117.289 40.3433 116.477 41.09C116.757 41.062 117.037 41.0433 117.317 41.034C117.597 41.0153 117.873 41.006 118.143 41.006H121.083V42H114.797Z" fill="#351021"/>
<defs>
<clipPath id="clip0_3023_1042">
<rect width="152" height="22" fill="white"/>
</clipPath>
</defs>
</svg>
